<svg xmlns="http://www.w3.org/2000/svg" viewBox="3.200000047683716 20.299999237060547 53.64999771118164 36.400001525878906" data-asc="1.12" width="53.64999771118164" height="36.400001525878906"><defs/><g fill="#000000"><g transform="translate(0, 0)"><path d="M15.50 52.80Q17.65 52.80 19.18 52.08Q20.70 51.35 21.68 50.13Q22.65 48.90 23.13 47.33Q23.60 45.75 23.60 44.00L23.60 43.40L27.80 43.40L27.80 44.00Q27.80 46.65 27 48.98Q26.20 51.30 24.65 53.03Q23.10 54.75 20.80 55.73Q18.50 56.70 15.50 56.70Q9.70 56.70 6.45 53.05Q3.20 49.40 3.20 42.40L3.20 34.60Q3.20 27.80 6.45 24.05Q9.70 20.30 15.50 20.30Q18.50 20.30 20.80 21.28Q23.10 22.25 24.65 23.98Q26.20 25.70 27 28.03Q27.80 30.35 27.80 33.00L27.80 33.60L23.60 33.60L23.60 33.00Q23.55 31.30 23.08 29.70Q22.60 28.10 21.63 26.88Q20.65 25.65 19.15 24.93Q17.65 24.20 15.50 24.20Q11.45 24.20 9.43 27.15Q7.40 30.10 7.40 34.90L7.40 42.10Q7.40 47.25 9.43 50.03Q11.45 52.80 15.50 52.80ZM35.35 21.00L56.85 21.00L56.85 24.90L39.55 24.90L39.55 36.50L56.55 36.50L56.55 40.40L39.55 40.40L39.55 56.00L35.35 56.00L35.35 21.00Z"/></g></g></svg>