<svg xmlns="http://www.w3.org/2000/svg" viewBox="4.400000095367432 19.100000381469727 636.2999877929688 37.599998474121094" data-asc="1.12" width="636.2999877929688" height="37.599998474121094"><defs/><g fill="#000000"><g transform="translate(0, 0)"><path d="M4.40 21.00L26.80 21.00L26.80 27.30L11 27.30L11 35.30L26.50 35.30L26.50 41.60L11 41.60L11 56.00L4.40 56.00L4.40 21.00ZM34.35 50.00L43.05 50.00L43.05 27.00L34.65 27.00L34.65 21.00L49.35 21.00L49.35 50.00L57.45 50.00L57.45 56.00L34.35 56.00L34.35 50.00ZM81.15 52.40Q80.15 54.75 78.35 55.73Q76.55 56.70 74.15 56.70Q71.90 56.70 69.92 55.85Q67.95 55.00 66.45 53.35Q64.95 51.70 64.08 49.35Q63.20 47.00 63.20 44.00L63.20 43.20Q63.20 40.25 64.05 37.90Q64.90 35.55 66.35 33.90Q67.80 32.25 69.73 31.38Q71.65 30.50 73.85 30.50Q76.50 30.50 78.13 31.40Q79.75 32.30 80.70 34.20L81.60 34.20L81.60 31.20L87.90 31.20L87.90 48.50Q87.90 50.00 89.25 50.00L90.20 50.00L90.20 56.00L85.90 56.00Q84.20 56.00 83.13 55.00Q82.05 54.00 82.05 52.40L81.15 52.40M75.55 50.70Q78.30 50.70 79.95 48.88Q81.60 47.05 81.60 43.90L81.60 43.30Q81.60 40.15 79.95 38.33Q78.30 36.50 75.55 36.50Q72.80 36.50 71.15 38.33Q69.50 40.15 69.50 43.30L69.50 43.90Q69.50 47.05 71.15 48.88Q72.80 50.70 75.55 50.70ZM93.95 31.20L100.75 31.20L106.60 53.00L107.50 53.00L113.35 31.20L120.15 31.20L113.05 56.00L101.05 56.00L93.95 31.20ZM126.75 50.00L135.15 50.00L135.15 37.20L127.35 37.20L127.35 31.20L141.45 31.20L141.45 50.00L148.65 50.00L148.65 56.00L126.75 56.00L126.75 50.00M143 23.85Q143 24.85 142.63 25.73Q142.25 26.60 141.60 27.23Q140.95 27.85 140.08 28.23Q139.20 28.60 138.25 28.60Q137.25 28.60 136.40 28.23Q135.55 27.85 134.90 27.23Q134.25 26.60 133.88 25.73Q133.50 24.85 133.50 23.85Q133.50 22.85 133.88 21.98Q134.25 21.10 134.90 20.48Q135.55 19.85 136.40 19.48Q137.25 19.10 138.25 19.10Q139.20 19.10 140.08 19.48Q140.95 19.85 141.60 20.48Q142.25 21.10 142.63 21.98Q143 22.85 143 23.85ZM181.20 43.90Q181.20 47.00 180.15 49.38Q179.10 51.75 177.30 53.38Q175.50 55.00 173.18 55.85Q170.85 56.70 168.30 56.70Q165.75 56.70 163.43 55.85Q161.10 55.00 159.30 53.38Q157.50 51.75 156.45 49.38Q155.40 47.00 155.40 43.90L155.40 43.30Q155.40 40.25 156.45 37.88Q157.50 35.50 159.30 33.85Q161.10 32.20 163.43 31.35Q165.75 30.50 168.30 30.50Q170.85 30.50 173.18 31.35Q175.50 32.20 177.30 33.85Q179.10 35.50 180.15 37.88Q181.20 40.25 181.20 43.30L181.20 43.90M168.30 50.70Q169.65 50.70 170.85 50.25Q172.05 49.80 172.95 48.95Q173.85 48.10 174.38 46.88Q174.90 45.65 174.90 44.10L174.90 43.10Q174.90 41.55 174.38 40.33Q173.85 39.10 172.95 38.25Q172.05 37.40 170.85 36.95Q169.65 36.50 168.30 36.50Q166.95 36.50 165.75 36.95Q164.55 37.40 163.65 38.25Q162.75 39.10 162.22 40.33Q161.70 41.55 161.70 43.10L161.70 44.10Q161.70 45.65 162.22 46.88Q162.75 48.10 163.65 48.95Q164.55 49.80 165.75 50.25Q166.95 50.70 168.30 50.70ZM235.90 52.40L235 52.40Q234.60 53.25 234.02 54.03Q233.45 54.80 232.52 55.40Q231.60 56.00 230.32 56.35Q229.05 56.70 227.25 56.70Q224.95 56.70 222.97 55.88Q221 55.05 219.52 53.43Q218.05 51.80 217.22 49.45Q216.40 47.10 216.40 44.05L216.40 43.15Q216.40 40.15 217.27 37.80Q218.15 35.45 219.67 33.83Q221.20 32.20 223.22 31.35Q225.25 30.50 227.50 30.50Q230.50 30.50 232.25 31.63Q234 32.75 235 34.80L235.90 34.80L235.90 21.00L242.20 21.00L242.20 56.00L235.90 56.00L235.90 52.40M229.30 50.70Q232.25 50.70 234.07 48.83Q235.90 46.95 235.90 43.90L235.90 43.30Q235.90 40.25 234.07 38.38Q232.25 36.50 229.30 36.50Q226.35 36.50 224.52 38.33Q222.70 40.15 222.70 43.30L222.70 43.90Q222.70 47.05 224.52 48.88Q226.35 50.70 229.30 50.70ZM254.25 45.65Q254.30 46.75 254.77 47.68Q255.25 48.60 256.07 49.28Q256.90 49.95 257.97 50.33Q259.05 50.70 260.25 50.70Q262.60 50.70 263.85 49.88Q265.10 49.05 265.65 47.90L271.05 50.90Q270.60 51.85 269.80 52.88Q269 53.90 267.72 54.75Q266.45 55.60 264.63 56.15Q262.80 56.70 260.35 56.70Q257.55 56.70 255.25 55.80Q252.95 54.90 251.27 53.20Q249.60 51.50 248.67 49.05Q247.75 46.60 247.75 43.50L247.75 43.20Q247.75 40.35 248.72 38.00Q249.70 35.65 251.40 34.00Q253.10 32.35 255.37 31.43Q257.65 30.50 260.25 30.50Q263.45 30.50 265.75 31.63Q268.05 32.75 269.55 34.48Q271.05 36.20 271.75 38.28Q272.45 40.35 272.45 42.30L272.45 45.65L254.25 45.65M260.20 36.20Q257.80 36.20 256.30 37.43Q254.80 38.65 254.35 40.25L266.05 40.25Q265.75 38.50 264.17 37.35Q262.60 36.20 260.20 36.20ZM316.20 42.80L316.20 56.00L309.60 56.00L309.60 21.00L323.30 21.00Q326 21.00 328 21.88Q330 22.75 331.32 24.18Q332.65 25.60 333.32 27.43Q334 29.25 334 31.15L334 32.35Q334 34.30 333.32 36.18Q332.65 38.05 331.32 39.53Q330 41.00 328 41.90Q326 42.80 323.30 42.80L316.20 42.80M316.20 36.50L322.65 36.50Q324.85 36.50 326.13 35.30Q327.40 34.10 327.40 32.20L327.40 31.60Q327.40 29.70 326.13 28.50Q324.85 27.30 322.65 27.30L316.20 27.30L316.20 36.50ZM356.55 52.40Q355.55 54.75 353.75 55.73Q351.95 56.70 349.55 56.70Q347.30 56.70 345.33 55.85Q343.35 55.00 341.85 53.35Q340.35 51.70 339.48 49.35Q338.60 47.00 338.60 44.00L338.60 43.20Q338.60 40.25 339.45 37.90Q340.30 35.55 341.75 33.90Q343.20 32.25 345.13 31.38Q347.05 30.50 349.25 30.50Q351.90 30.50 353.53 31.40Q355.15 32.30 356.10 34.20L357 34.20L357 31.20L363.30 31.20L363.30 48.50Q363.30 50.00 364.65 50.00L365.60 50.00L365.60 56.00L361.30 56.00Q359.60 56.00 358.53 55.00Q357.45 54.00 357.45 52.40L356.55 52.40M350.95 50.70Q353.70 50.70 355.35 48.88Q357 47.05 357 43.90L357 43.30Q357 40.15 355.35 38.33Q353.70 36.50 350.95 36.50Q348.20 36.50 346.55 38.33Q344.90 40.15 344.90 43.30L344.90 43.90Q344.90 47.05 346.55 48.88Q348.20 50.70 350.95 50.70ZM387.90 31.20L394.20 31.20L394.20 56.00L387.90 56.00L387.90 52.40L387.00 52.40Q385.35 56.70 379.90 56.70Q378.05 56.70 376.45 56.10Q374.85 55.50 373.65 54.25Q372.45 53.00 371.78 51.13Q371.10 49.25 371.10 46.70L371.10 31.20L377.40 31.20L377.40 45.40Q377.40 48.05 378.65 49.53Q379.90 51.00 382.40 51.00Q385.25 51.00 386.58 49.18Q387.90 47.35 387.90 44.20L387.90 31.20ZM401.55 50.00L410.25 50.00L410.25 27.00L401.85 27.00L401.85 21.00L416.55 21.00L416.55 50.00L424.65 50.00L424.65 56.00L401.55 56.00L401.55 50.00ZM448.35 52.40Q447.35 54.75 445.55 55.73Q443.75 56.70 441.35 56.70Q439.10 56.70 437.13 55.85Q435.15 55.00 433.65 53.35Q432.15 51.70 431.28 49.35Q430.40 47.00 430.40 44.00L430.40 43.20Q430.40 40.25 431.25 37.90Q432.10 35.55 433.55 33.90Q435.00 32.25 436.93 31.38Q438.85 30.50 441.05 30.50Q443.70 30.50 445.33 31.40Q446.95 32.30 447.90 34.20L448.80 34.20L448.80 31.20L455.10 31.20L455.10 48.50Q455.10 50.00 456.45 50.00L457.40 50.00L457.40 56.00L453.10 56.00Q451.40 56.00 450.33 55.00Q449.25 54.00 449.25 52.40L448.35 52.40M442.75 50.70Q445.50 50.70 447.15 48.88Q448.80 47.05 448.80 43.90L448.80 43.30Q448.80 40.15 447.15 38.33Q445.50 36.50 442.75 36.50Q440.00 36.50 438.35 38.33Q436.70 40.15 436.70 43.30L436.70 43.90Q436.70 47.05 438.35 48.88Q440.00 50.70 442.75 50.70ZM505.00 50.70Q506.90 50.70 508.13 50.13Q509.35 49.55 510.03 48.58Q510.70 47.60 510.95 46.33Q511.20 45.05 511.20 43.70L511.20 42.80L517.80 42.80L517.80 43.70Q517.80 49.95 514.53 53.33Q511.25 56.70 505.00 56.70Q499.00 56.70 495.50 53.05Q492.00 49.40 492.00 42.40L492.00 34.60Q492.00 31.25 492.90 28.58Q493.80 25.90 495.50 24.08Q497.20 22.25 499.60 21.28Q502.00 20.30 505.00 20.30Q508.10 20.30 510.50 21.20Q512.90 22.10 514.53 23.80Q516.15 25.50 516.98 27.90Q517.80 30.30 517.80 33.30L517.80 34.20L511.20 34.20L511.20 33.30Q511.20 32.05 510.90 30.80Q510.60 29.55 509.90 28.55Q509.20 27.55 508.00 26.93Q506.80 26.30 505.00 26.30Q503.35 26.30 502.15 26.93Q500.95 27.55 500.15 28.63Q499.35 29.70 498.98 31.13Q498.60 32.55 498.60 34.10L498.60 42.90Q498.60 44.60 498.95 46.03Q499.30 47.45 500.05 48.50Q500.80 49.55 502.03 50.13Q503.25 50.70 505.00 50.70ZM529.65 45.65Q529.70 46.75 530.18 47.68Q530.65 48.60 531.48 49.28Q532.30 49.95 533.38 50.33Q534.45 50.70 535.65 50.70Q538.00 50.70 539.25 49.88Q540.50 49.05 541.05 47.90L546.45 50.90Q546.00 51.85 545.20 52.88Q544.40 53.90 543.13 54.75Q541.85 55.60 540.03 56.15Q538.20 56.70 535.75 56.70Q532.95 56.70 530.65 55.80Q528.35 54.90 526.68 53.20Q525.00 51.50 524.08 49.05Q523.15 46.60 523.15 43.50L523.15 43.20Q523.15 40.35 524.13 38.00Q525.10 35.65 526.80 34.00Q528.50 32.35 530.78 31.43Q533.05 30.50 535.65 30.50Q538.85 30.50 541.15 31.63Q543.45 32.75 544.95 34.48Q546.45 36.20 547.15 38.28Q547.85 40.35 547.85 42.30L547.85 45.65L529.65 45.65M535.60 36.20Q533.20 36.20 531.70 37.43Q530.20 38.65 529.75 40.25L541.45 40.25Q541.15 38.50 539.58 37.35Q538.00 36.20 535.60 36.20ZM576.95 50.00L576.95 56.00L555.35 56.00L555.35 45.50L570.95 37.90L570.95 37.00L555.65 37.00L555.65 31.20L576.35 31.20L576.35 41.40L560.75 49.10L560.75 50.00L576.95 50.00ZM601.35 52.40Q600.35 54.75 598.55 55.73Q596.75 56.70 594.35 56.70Q592.10 56.70 590.13 55.85Q588.15 55.00 586.65 53.35Q585.15 51.70 584.28 49.35Q583.40 47.00 583.40 44.00L583.40 43.20Q583.40 40.25 584.25 37.90Q585.10 35.55 586.55 33.90Q588.00 32.25 589.93 31.38Q591.85 30.50 594.05 30.50Q596.70 30.50 598.33 31.40Q599.95 32.30 600.90 34.20L601.80 34.20L601.80 31.20L608.10 31.20L608.10 48.50Q608.10 50.00 609.45 50.00L610.40 50.00L610.40 56.00L606.10 56.00Q604.40 56.00 603.33 55.00Q602.25 54.00 602.25 52.40L601.35 52.40M595.75 50.70Q598.50 50.70 600.15 48.88Q601.80 47.05 601.80 43.90L601.80 43.30Q601.80 40.15 600.15 38.33Q598.50 36.50 595.75 36.50Q593.00 36.50 591.35 38.33Q589.70 40.15 589.70 43.30L589.70 43.90Q589.70 47.05 591.35 48.88Q593.00 50.70 595.75 50.70ZM614.70 31.20L625.20 31.20L625.20 34.80L626.10 34.80Q626.80 32.75 628.48 31.63Q630.15 30.50 632.50 30.50Q636.20 30.50 638.45 32.83Q640.70 35.15 640.70 39.90L640.70 41.00L634.20 41.60L634.20 40.90Q634.20 38.85 633.15 37.63Q632.10 36.40 630.00 36.40Q627.90 36.40 626.70 37.85Q625.50 39.30 625.50 42.00L625.50 50.00L631.20 50.00L631.20 56.00L614.10 56.00L614.10 50.00L619.20 50.00L619.20 37.20L614.70 37.20L614.70 31.20Z"/></g></g></svg>